# xmcd CD database file
#
# Track frame offsets:
#	150
#	2400
#	13877
#	16727
#	28451
#	29951
#	55456
#	57267
#	70854
#	73104
#	96498
#	97848
#	121418
#
# Disc length: 1993 seconds
#
# Revision: 0
# Processed by: cddbd v1.5.2PL0 Copyright (c) Steve Scherf et al.
# Submitted via: CDex 2.14
#
DISCID=b507c70d
DTITLE=Varios - Guitarra total_Mitos del Blues
DYEAR=1900
DGENRE=Blues
TTITLE0=Al estilo BBKing
TTITLE1=Al estilo BBKing pista acomp.
TTITLE2=Al estilo Albert King
TTITLE3=Al estilo Albert King pista acomp.
TTITLE4=Al estilo Eric Clapton
TTITLE5=Al estilo Eric Clapton pista acomp.
TTITLE6=Al estilo Robben Ford
TTITLE7=Al estilo Robben Ford pista acomp.
TTITLE8=Al estilo Gary Moore
TTITLE9=Al estilo Gary Moore pista acomp.
TTITLE10=Al estilo Stevie Ray Vaughan
TTITLE11=Al estilo Stevie Ray Vaughan pista acomp.
TTITLE12=Bonus
EXTD=
EXTT0=
EXTT1=
EXTT2=
EXTT3=
EXTT4=
EXTT5=
EXTT6=
EXTT7=
EXTT8=
EXTT9=
EXTT10=
EXTT11=
EXTT12=
PLAYORDER=
